<svg xmlns="http://www.w3.org/2000/svg" width="500" height="500"><path fill="#FCFBF2" d="M0 0h500v500H0z"/><path fill="#050503" d="m242.715 109.867 3.988-.006 4.234.014 2.16.005c9.118.023 18.23.124 27.34.495l2.573.093c5.5.267 10.656 1.174 15.99 2.532v2l2.125.25c2.875.75 2.875.75 5.504 2.754 4.23 2.505 7.367 2.622 12.183 2.683 8.098.223 8.098.223 9.188 1.313.06 1.518.06 3.04.035 4.559-.375 14.14-.375 14.14 6.367 25.984 4.979 2.792 10.104 2.321 15.598 1.457l3-1 1-32h22c.092 5.445.172 10.888.22 16.333q.03 2.775.082 5.552c.048 2.666.071 5.331.089 7.998l.062 2.491c.002 5.358-.886 8.379-4.453 12.626-3.98 2.816-7.365 4.132-12.23 4.098l-2.432-.01-2.526-.025-2.56-.014q-3.126-.02-6.252-.049l1.023 2.309c2.683 6.21 4.757 12.036 5.977 18.691l1.793.078c5.237.376 8.5.888 12.207 4.922 2.58 4.092 3.704 7.173 3 12-2.646 4.54-5.67 7.588-9.625 11-5.624 5.359-7.092 9.993-7.326 17.693L353 239q-.127 4.626-.279 9.251a283 283 0 0 0-.118 6.398c-.13 6.082-.529 9.725-4.603 14.351-2.84 2.15-4.78 2.96-8.3 3.602-5.005 1.891-6.717 4.65-9.575 9.023l-1.56 2.307C316.806 301.58 307.32 320.14 303 341l3.348 1.828c3.813 2.083 5.734 4.182 7.652 8.172.565 4.927.07 8.087-1.687 12.688-.872 2.217-.872 2.217-1.313 4.312 1.265 2.608 1.265 2.608 3 5 .535 5.621.212 9.183-3 14-3.478 3.516-6.601 5.913-11.7 6.098l-2.988-.036-3.011-.027L291 393l-.297 1.688c-1.198 6.115-2.687 12.533-7.422 16.896-2.855 1.772-4.633 1.796-7.98 1.804l-3.469.029-3.734-.019-3.848.01q-4.03.003-8.057-.017a1009 1009 0 0 0-10.303.01c-3.285.014-6.57.005-9.855-.003l-3.728.019-3.479-.029-3.052-.007c-4.1-.563-6.802-2.182-9.401-5.381-2.061-4.497-3.192-9.208-4.375-14l-2.16-.078c-7.826-.464-12.72-1.556-18.215-7.485-2.824-4.235-3.247-8.451-2.625-13.437l1.688-2.437c1.579-2.408 1.579-2.408.843-4.622q-.855-2.344-1.738-4.68c-1.425-4.065-1.635-7.394.156-11.366 2.375-4.113 4.573-6.958 9.051-8.895h2c-6.155-19.592-12.762-37.468-24.76-54.238-1.232-1.75-2.399-3.531-3.56-5.328-3.592-5.742-3.592-5.742-9.067-9.29-2.228-.195-4.379-.179-6.613-.144-4.29-1.62-6.21-4.155-8.203-8.255-1.02-3.514-.992-6.817-.879-10.436l.066-2.145.144-4.446c.554-14.825.554-14.825-6.506-27.358-2.606-2.284-5.242-4.404-8.147-6.296C132 212 132 212 131 210c-1.03-9.008-1.03-9.008 1.047-13.023 1.76-2.123 3.478-3.74 5.953-4.977 2.04-.07 4.083-.084 6.125-.062l3.32.027L150 192l.75-3.75c1.298-5.898 3.264-11.553 5.25-17.25l-2.266-.664c-9.047-2.913-9.047-2.913-11.359-6.399-2.867-6.124-2.595-11.588-2.625-18.25l-.062-3.42c-.05-10.422-.05-10.422 3.312-15.267 5.913-5.753 12.171-6.288 20.012-6.309l5.232-.076q4.098-.044 8.197-.071c2.649-.022 5.297-.061 7.946-.103h2.48c4.186.113 4.186.113 7.646-1.872L196 117c1.914-.792 3.836-1.572 5.797-2.238 2.176-.715 2.176-.715 4.094-1.617 6.155-2.581 12.164-2.376 18.726-2.21l2.274.057 2.032.074c2.136-.007 2.136-.007 4.414-.557 3.173-.606 6.148-.639 9.378-.642"/><path fill="#25210C" d="M166 272c4.15-.623 7.863-.79 12 0 3.605 2.709 5.672 6.18 8 10q1.102 1.722 2.207 3.441c2.386 3.786 4.609 7.654 6.793 11.559l1.047 1.85C202.795 310.94 211 327.034 211 341h81l2-10c.978-3.093 1.984-6.097 3.125-9.125l.926-2.476C303.254 305.823 310.226 293.257 318 281l1.703-2.937c1.625-2.524 2.864-4.301 5.297-6.063 4.11-.714 7.877-.548 12 0l-2.375 3.563-1.664 2.511a438 438 0 0 1-4.234 6.196C317.064 301.15 305.877 320.367 303 341l3.25 1.625c3.79 2.199 5.817 4.355 7.75 8.375.565 4.927.07 8.087-1.687 12.688-.872 2.217-.872 2.217-1.313 4.312 1.265 2.608 1.265 2.608 3 5 .535 5.621.212 9.183-3 14-3.478 3.516-6.601 5.913-11.7 6.098l-2.988-.036-3.011-.027L291 393l-.297 1.688c-1.198 6.115-2.687 12.533-7.422 16.896-2.855 1.772-4.633 1.796-7.98 1.804l-3.469.029-3.734-.019-3.848.01q-4.03.003-8.057-.017a1009 1009 0 0 0-10.303.01c-3.285.014-6.57.005-9.855-.003l-3.728.019-3.479-.029-3.052-.007c-4.1-.563-6.802-2.182-9.401-5.381-2.061-4.497-3.192-9.208-4.375-14l-2.16-.078c-7.826-.464-12.72-1.556-18.215-7.485-2.824-4.235-3.247-8.451-2.625-13.437l1.688-2.437c1.579-2.408 1.579-2.408.843-4.622q-.855-2.344-1.738-4.68c-1.425-4.065-1.635-7.394.156-11.366 2.375-4.113 4.573-6.958 9.051-8.895h2c-7.83-24.92-17.465-45.15-33.383-65.805C166 273 166 273 166 272"/><path fill="#F0EEC7" d="M234 244h32c1.313 9.188 1.313 9.188 1.704 12.055.84 5.57 1.704 9.788 6.216 13.543 4.622 2.104 9.044 1.882 14.068 1.914l3.207.054c3.373.054 6.745.088 10.118.122q3.435.05 6.869.103 8.409.126 16.818.209l-3.254 5.113-1.942 3.054a2199 2199 0 0 1-3.956 6.188C305.093 303.417 297.414 321.572 292 341c-26.883 2.267-54.078 1.017-81 0l-.516-1.826c-6.723-23.555-15.486-45.694-31.34-64.74C178 273 178 273 178 272l3.944-.044c4.842-.058 9.684-.136 14.525-.218q3.14-.051 6.28-.084c3.013-.034 6.027-.086 9.04-.142l2.823-.02c6.107-.137 10.764-.762 15.204-5.382 1.327-2.365 1.772-4.193 2.133-6.876l.347-2.43.392-3.054z"/><path fill="#EBC729" d="m223.563 110.813 2.767.04q3.336.052 6.67.147c1.381 2.763 1.19 4.947 1 8-2.398 2.398-3.273 2.314-6.562 2.563-3.018.021-3.018.021-5.438 1.437a69 69 0 0 0-.205 4.428l-.06 2.851-.051 3.1-.063 3.157q-.097 5.013-.184 10.026l-.13 6.78c-.109 5.552-.208 11.105-.307 16.658h23v-14c8.246 4.398 8.246 4.398 11.514 7.008 8.882 6.952 16.324 7.137 27.236 6.992q2.375.012 4.75.035c3.834.03 7.666.011 11.5-.035-1.356-4.067-3.06-4.375-6.812-6.375-6.553-3.581-12.817-7.534-19.063-11.625l-2.722-1.783A2602 2602 0 0 1 264 146c1.408-4.223 4.446-5.334 8.125-7.437l1.977-1.159A735 735 0 0 1 280 134l2.054-1.176Q284.526 131.41 287 130v2l3.563.188c4.923.579 7.639 2.726 11.437 5.812l-1 5-6 2 1.125 2.625c1.187 4.58-.07 7.266-2.125 11.375h4v-2h2v-2h2l1-2c2.788 1.394 2.813 2.906 3.813 5.813 1.97 5.163 4.211 7.7 9.187 10.187 1.666.152 3.337.25 5.008.316l2.988.127 3.129.12 3.152.13q3.861.16 7.723.307l.398 2.071c.175.898.35 1.797.532 2.722l.523 2.696c.533 2.675.533 2.675 1.672 5.823.897 2.755.942 4.818.875 7.688l-2.693.011q-12.58.056-25.159.173c-4.311.04-8.622.072-12.934.087-4.163.015-8.325.05-12.488.097q-2.379.023-4.758.024c-2.226.002-4.451.03-6.677.062l-3.836.027c-4.98.748-8.141 2.924-11.318 6.78-1.477 3.558-1.464 6.777-1.325 10.552L261 216h-22c.313-7.625.313-7.625.45-9.99.077-3.878-.27-6.32-2.72-9.408-4.484-4.273-7.334-4.853-13.518-4.92l-2.041-.031c-2.219-.031-4.437-.048-6.655-.065q-2.313-.028-4.624-.059c-4.05-.051-8.102-.09-12.152-.128-4.136-.04-8.272-.091-12.408-.141Q173.167 191.114 161 191c.547-5.251 1.433-9.952 3.063-15l1.097-3.437L166 170l3.194-.044c3.934-.058 7.868-.136 11.802-.218a838 838 0 0 1 5.095-.084c2.45-.034 4.9-.087 7.35-.142l2.277-.02c5.763-.158 10.54-1.298 15.157-4.992 3.693-4.925 2.352-12.493 2.375-18.312l.063-3.854.015-3.729.028-3.401c-.428-3.852-1.095-6.035-3.356-9.204-6.302-3.335-12.255-3.467-19.281-3.512l-3.194-.054c-3.342-.054-6.683-.088-10.025-.121q-3.414-.05-6.828-.104-8.335-.126-16.672-.209v-1l3.532-.044c4.323-.058 8.644-.135 12.966-.218q2.806-.051 5.613-.084a963 963 0 0 0 8.065-.142l2.538-.02c4.268.087 4.268.087 7.804-1.925L196 117a132 132 0 0 1 8-3l2.025-.796c5.958-2.242 11.215-2.572 17.537-2.391"/><path fill="#ECC830" d="m242.52 109.867 1.96-.004q3.166-.001 6.333.012l2.174.005c9.155.023 18.303.122 27.45.495l2.572.093c5.5.267 10.657 1.174 15.991 2.532v2l2.125.25c2.875.75 2.875.75 5.5 2.75 4.24 2.512 7.42 2.66 12.25 2.75l2.375.09c1.916.07 3.833.117 5.75.16v1h-21v36l-1-4-5 1v2h-2v2h-4c.875-7.875.875-7.875 2-9-.468-2.9-.867-3.867-3-6l7-1 1-5a73 73 0 0 0-6-4l-1.84-1.285c-2.67-1.43-4.098-1.85-7.16-1.715-5.139 2.199-9.703 5.539-14.232 8.774C270 141 270 141 267.016 142.711L265 144v2c1.79 1.39 1.79 1.39 4.137 2.758l2.673 1.635 2.877 1.732 2.888 1.767a877 877 0 0 0 12.714 7.64c.606.36 1.213.72 1.837 1.093a579 579 0 0 0 4.769 2.79L299 167v3c-35.608 2.18-35.608 2.18-48.184-8.398L248 159l-3-2-1 13h-23c-.046-6.657-.086-13.314-.11-19.97q-.016-3.4-.04-6.799c-.025-3.251-.036-6.503-.045-9.754l-.032-3.085v-2.85l-.014-2.517C221 123 221 123 223 121c2.129-.379 2.129-.379 4.563-.562 3.017-.022 3.017-.022 5.437-1.438a59 59 0 0 0 .063-4.062L233 111c3.38-1.127 5.956-1.13 9.52-1.133"/><path fill="#ECEDBD" d="M307 200h38l.125 11.75.055 3.624c.056 11.057-1.54 21.05-5.493 31.376l-.857 2.379c-.879 2.35-1.746 4.605-2.83 6.871l-.815 2.03c-1.174 2.434-2.215 4.109-4.185 5.97-3.986 1.167-7.85 1.027-11.977.922l-3.521-.006a482 482 0 0 1-7.358-.093c-3.763-.073-7.521-.082-11.285-.08q-3.573-.03-7.148-.071l-3.419-.014-3.166-.077-2.787-.046C278 264 278 264 276.222 262.156c-1.659-2.927-1.929-5.499-2.32-8.836l-.241-1.967a728 728 0 0 1-.724-6.228q-.361-3.048-.73-6.096-.241-2.019-.478-4.038c-.675-5.72-1.495-11.41-2.36-17.105C269 215 269 215 269 211c5.68.94 9.724 1.862 14 6l-1 1.688c-1.131 2.615-1.157 4.493-1 7.312 2.374.319 2.374.319 5 0 1.72-1.623 1.72-1.623 3-3.812 4.024-5.742 4.024-5.742 8-7.188 4.967-.66 8.793-.559 13.375 1.563 5.171 4.801 7.057 9.48 7.625 16.437 1.666.043 3.334.04 5 0 1.203-.975 1.203-.975 1.055-2.785-.657-8.321-4.134-13.498-10.055-19.215l-.937-2c-1.027-2.258-1.027-2.258-3.688-4.062-.784-.64-1.567-1.28-2.375-1.938zM162.602 199.886a782 782 0 0 1 4.808.016l2.552.005c2.7.005 5.4.018 8.1.03q2.74.008 5.479.014 6.73.017 13.459.049v3h-2l-1 3h-2v2c-1.828 1.332-1.828 1.332-4.25 2.812-4.994 3.222-8.437 6.649-10.75 12.188-.24 2.592-.24 2.592-.125 5.25l.055 2.703L177 233h5l.262-1.758c1.266-7.038 3.424-10.625 9.113-15.117 4.762-2.04 8.462-1.5 13.313.062 4.253 2.328 6.245 5.02 8.687 9.125 1.605 2.041 1.605 2.041 4.813 1.938L221 227v-4h7c.951 4.507.926 8.2.293 12.754l-.53 3.838-.287 1.976c-.288 1.99-.56 3.984-.83 5.977-1.94 13.749-1.94 13.749-4.646 16.455a76 76 0 0 1-4.703.114h-3.034l-3.298-.016-3.359-.005c-3.556-.005-7.112-.018-10.668-.03q-3.608-.008-7.213-.014-8.863-.017-17.725-.049c-8.668-15.686-8.668-15.686-10.937-23.563l-.588-1.955c-1.74-5.929-2.601-11.547-2.608-17.72l-.004-3.483.012-3.592-.012-3.65.004-3.463.004-3.169c.208-3.879.68-3.39 4.73-3.519"/><path fill="#121006" d="M401.411 120.886h3.275l3.517.016 3.615.005c3.81.005 7.621.018 11.432.03q3.875.008 7.75.014 9.5.017 19 .049.039 3.468.063 6.937l.035 3.903C450 135 450 135 449 136c-1.486.157-2.98.25-4.473.316l-2.724.127-2.865.12-2.877.13q-3.53.16-7.061.307l3.29.262q2.167.21 4.335.425l2.16.163c5.576.588 8.25 2.178 12.215 6.15 3.114 4.671 2.6 9.53 2 15-1.812 3.562-1.812 3.562-4 6l-1.562 1.812c-3.102 2.563-6.368 2.31-10.195 2.302h-3.578l-3.864-.016-3.956-.005q-5.2-.006-10.401-.024-5.31-.014-10.618-.02-10.413-.016-20.826-.049v-15l15-1-3.625-.75c-4.092-1.038-7.094-2.516-10.375-5.25-2.59-5.215-2.679-10.291-2-16 2.174-4.51 4.49-6.858 9-9 3.188-.994 6.08-1.121 9.411-1.114"/><path fill="#302C0E" d="m166.457 123.797 2.735-.017q2.855-.015 5.71-.02c2.89-.01 5.78-.041 8.67-.073q2.786-.009 5.573-.015l2.586-.038c6.53.024 13.2.7 18.3 5.13 2.05 4.732 1.527 10.005 1.525 15.08.006 2.085.061 4.164.118 6.248.043 9.768.043 9.768-1.944 12.928-3.813 3.284-7.718 4.103-12.581 4.141l-2.984.03-3.22.012-3.314.017q-3.472.014-6.945.02c-3.54.01-7.08.041-10.62.072q-3.372.01-6.746.016l-3.207.038c-6.374-.02-9.939-.645-14.863-4.866-3.692-4.43-2.517-11.394-2.562-16.812l-.088-3.42c-.05-6.382.001-10.468 4.4-15.268 5.474-3.832 13.045-3.171 19.457-3.203"/><path fill="#171403" d="m76.79 120.87 3.75-.009 4.085.006 4.159-.003q4.362-.001 8.726.006 5.604.006 11.208-.004 4.296-.004 8.59 0 2.068 0 4.135-.002 2.883-.002 5.768.007l3.322.002C133 121 133 121 134 122c.099 2.165.13 4.333.125 6.5l.008 3.594C134 135 134 135 133 136c-3.03.089-6.037.115-9.066.098l-2.754-.005a3599 3599 0 0 1-8.743-.03q-2.954-.008-5.912-.014Q99.263 136.032 92 136v3h36v15H93v14c-2 2-2 2-4.063 2.227l-2.507-.032-2.715-.02-2.84-.05-2.863-.027A936 936 0 0 1 71 170c-1.183-2.366-1.127-3.795-1.13-6.434l-.009-2.78.006-3.009-.003-3.078q0-3.225.006-6.448.005-4.954-.007-9.91 0-3.125.004-6.251l-.006-3.015.01-2.77.002-2.452c.28-4.087 3.533-2.98 6.916-2.982"/><path fill="#E9C52A" d="m223.563 110.813 2.767.04q3.336.052 6.67.147c1.381 2.763 1.19 4.947 1 8-2.398 2.398-3.273 2.314-6.562 2.563-3.018.021-3.018.021-5.438 1.437a69 69 0 0 0-.205 4.428l-.06 2.851-.051 3.1-.063 3.157q-.097 5.013-.184 10.026l-.13 6.78c-.109 5.552-.208 11.105-.307 16.658h23v-14l2 1v3h2v19l-5.187-.187c-10.164.035-18.933 1.943-27.399 7.687-6.82 4.238-12.03 4.922-19.941 4.793l-2.997-.013c-3.138-.017-6.276-.054-9.413-.093q-3.205-.022-6.409-.04-7.827-.051-15.654-.147c.547-5.251 1.433-9.952 3.063-15l1.097-3.437L166 170l3.194-.044c3.934-.058 7.868-.136 11.802-.218a838 838 0 0 1 5.095-.084c2.45-.034 4.9-.087 7.35-.142l2.277-.02c5.763-.158 10.54-1.298 15.157-4.992 3.693-4.925 2.352-12.493 2.375-18.312l.063-3.854.015-3.729.028-3.401c-.428-3.852-1.095-6.035-3.356-9.204-6.302-3.335-12.255-3.467-19.281-3.512l-3.194-.054c-3.342-.054-6.683-.088-10.025-.121q-3.414-.05-6.828-.104-8.335-.126-16.672-.209v-1l3.532-.044c4.323-.058 8.644-.135 12.966-.218q2.806-.051 5.613-.084a963 963 0 0 0 8.065-.142l2.538-.02c4.268.087 4.268.087 7.804-1.925L196 117a132 132 0 0 1 8-3l2.025-.796c5.958-2.242 11.215-2.572 17.537-2.391"/><path fill="#CCAA05" d="M224 125h17v13l4.813-2.562 3.109-1.637c3.059-1.664 3.059-1.664 5.344-3.758 9.673-8.078 22.867-5.639 34.734-5.043-4.366 3.724-9.099 6.615-14 9.563l-2.406 1.458q-2.29 1.388-4.586 2.765a228 228 0 0 0-4.883 3.054C261 143 261 143 258 143c4.18 4.62 8.9 7.688 14.188 10.938l2.557 1.594c5.202 3.235 10.431 6.417 15.735 9.48L292 166v1c-4.29.205-8.58.328-12.875.438l-3.648.177c-9.042.172-13.667-1.82-20.477-7.615a169 169 0 0 0-3.82-2.652l-1.524-1.055-1.781-1.23L242 151l-1 16h-17z"/><path fill="#CBAC24" d="m150.172 198.612 2.523-.016c2.757-.013 5.513-.005 8.27.006q2.87-.003 5.743-.01 6.021-.005 12.042.017c5.146.017 10.292.007 15.438-.01 3.954-.012 7.908-.008 11.862 0q2.846.004 5.692-.008c2.653-.008 5.304.004 7.957.02l2.379-.018c3.242.038 5.549.2 8.414 1.783C232 202 232 202 232.426 204.375l-.114 2.625-.074 2.625C232 212 232 212 231 215a166 166 0 0 0-.563 5.687l-.253 3.012L230 226l-2-1v-2h-7v4l-6 1c-2.024-2.53-4.02-5.03-5.875-7.688-3.389-3.687-6.72-4.133-11.563-4.75-4.557.56-7.246 2.332-10.562 5.438-1.908 2.861-2.428 4.353-3.063 7.625-.836 4.274-.836 4.274-1.937 5.375-2.5.125-2.5.125-5 0-1.613-1.613-1.287-3.334-1.375-5.563.085-6.624 2.583-10.577 7.125-15.23 3.007-2.728 5.201-4.436 9.25-5.207v-2c1.375-1.625 1.375-1.625 3-3h2v-3l-38 1c-.424 20.35.488 35.392 9 54l2.312 5.25q.842 1.875 1.688 3.75c-2.104.081-4.208.14-6.313.187l-3.55.106C159 264 159 264 157.32 262.975c-2.06-3.08-1.661-6.287-1.587-9.862q-.003-2.392-.011-4.783c.008-2.504.027-5.007.068-7.51.563-11.071.563-11.071-4.03-20.675A69 69 0 0 0 148 217l-2.652-2.54a775 775 0 0 0-4.625-4.187C139 208 139 208 138.559 204.914 139 202 139 202 140.017 200.342c3.141-2.126 6.49-1.758 10.155-1.73"/><path fill="#ECC835" d="M307 200h35c0 12.927-.62 21.45-9 31-1.746 1.512-1.746 1.512-3.437 2.688l-1.684 1.199c-7.378 4.371-15.429 4.183-23.617 2.215A186 186 0 0 1 295 234l-1 3c-6.34 4.547-12.35 5.733-20 5l-1 4q-.86-6.512-1.709-13.025l-.582-4.429q-.42-3.187-.834-6.374l-.508-3.872C269 215 269 215 269 211c5.68.94 9.724 1.862 14 6l-1 1.688c-1.131 2.615-1.157 4.493-1 7.312 2.374.319 2.374.319 5 0 1.72-1.623 1.72-1.623 3-3.812 4.024-5.742 4.024-5.742 8-7.188 4.967-.66 8.793-.559 13.375 1.563 5.171 4.801 7.057 9.48 7.625 16.437 1.666.043 3.334.04 5 0 1.203-.975 1.203-.975 1.055-2.785-.657-8.321-4.134-13.498-10.055-19.215l-.937-2c-1.027-2.258-1.027-2.258-3.688-4.062-.784-.64-1.567-1.28-2.375-1.938z"/><path fill="#CFAC03" d="m246 157 10 6-1 16 2-1c14.894-1.48 26.46 4.942 39 12v1l-2.292.028c-3.445.054-6.888.138-10.333.222l-3.605.043c-8.727.154-8.727.154-15.77 4.707-3.326 4.038-3.374 7.788-3.187 12.813L261 216h-22c.313-7.625.313-7.625.45-9.99.077-3.878-.27-6.32-2.72-9.408-4.075-3.884-6.768-4.837-12.37-5.016l-3.243-.117-3.367-.094-3.414-.117q-4.168-.141-8.336-.258c11.056-8.49 24.989-13.892 39-13l3 1v-19h-2z"/><path fill="#2D280C" d="M357 124q2.313-.04 4.625-.062l2.602-.036c2.996.106 5.828.55 8.773 1.098q.149 7.339.22 14.679.03 2.495.082 4.99c.048 2.396.071 4.79.089 7.186l.062 2.242c.002 3.55-.34 5.713-2.165 8.787-5.334 4.933-10.967 4.423-17.882 4.417l-3.104.013q-3.242.008-6.485.002c-3.305-.003-6.61.02-9.915.045q-3.154.004-6.308.002l-2.99.028c-6.242-.042-9.741-.703-14.398-5.076-1.762-3.383-1.576-6.642-1.499-10.362l.013-2.337c.017-2.456.054-4.91.092-7.366q.024-2.502.042-5.004.051-6.123.146-12.246c3.716-.2 4.772-.152 8 2v2h2l.621 2.152.817 2.786.808 2.777c.544 2.225.544 2.225 1.754 3.285.072 1.52.084 3.042.063 4.563l-.028 2.503L323 149h2l.875 2.938c.767 3.169.767 3.169 3.125 4.062 13.443 2.31 13.443 2.31 26-1 1.1-3.302 1.206-5.94 1.316-9.418l.127-3.799.12-3.97.13-4.006q.16-4.904.307-9.807"/><path fill="#ECC830" d="M161 200h36v3h-2l-1 3h-2v2c-1.828 1.332-1.828 1.332-4.25 2.813-4.994 3.221-8.437 6.648-10.75 12.187-.24 2.592-.24 2.592-.125 5.25l.055 2.703L177 233h5l.262-1.758c1.266-7.038 3.424-10.625 9.113-15.117 4.762-2.04 8.462-1.5 13.313.063 4.253 2.327 6.245 5.018 8.687 9.125 1.605 2.04 1.605 2.04 4.813 1.937L221 227v-4h7c1.076 4.829.817 9.04.063 13.875l-.303 2.086c-.245 1.68-.502 3.36-.76 5.039l-1-2h-7v-2l-2.687-.312c-3.396-.705-5.532-1.643-8.313-3.688v-2l-2.457.875c-11.452 3.84-19.986 4.634-31.043-.5-4.318-2.583-6.875-6.154-9.5-10.375l-1.262-1.992C159.618 214.347 161 209.728 161 200"/><path fill="#F0ECD6" d="m212.403 349.612 2.883-.016c3.146-.013 6.291-.005 9.437.006q3.276-.003 6.552-.01 6.867-.005 13.732.017c5.874.017 11.747.007 17.621-.01 4.51-.012 9.02-.008 13.53 0q3.248.003 6.498-.008c3.024-.007 6.047.004 9.07.02l2.726-.018 2.494.026 2.166.003c2.478.496 3.366 1.39 4.888 3.378.438 3 .438 3 0 6-1.763 2.027-3.236 2.89-5.906 3.276-2.467.123-4.918.14-7.389.128l-2.85.02c-3.108.02-6.215.015-9.324.01q-3.24.007-6.478.015-6.789.014-13.578-.003a2484 2484 0 0 0-17.412.038c-4.46.018-8.918.018-13.378.012q-3.21 0-6.42.019c-2.99.014-5.98.004-8.97-.013l-2.686.029c-5.984-.072-5.984-.072-9.159-2.402C199 358 199 358 198.5 355.437c.5-2.437.5-2.437 1.944-4.065 3.9-2.094 7.597-1.79 11.959-1.76"/><path fill="#EBC62E" d="m279.28 198.628 2.557-.011c2.794-.008 5.588.005 8.382.02q2.909 0 5.817-.002 6.097 0 12.196.029c5.216.023 10.431.023 15.647.016q6.007-.002 12.013.013 2.886.006 5.77.004 4.03.002 8.059.028l2.418-.007c3.818.037 5.607.113 8.861 2.282.652 3.129.652 3.129 0 7-2.138 3.014-4.73 5.436-7.438 7.937l-2.142 2.073C346.21 223 346.21 223 345 223v-23h-38c2.437 4.774 2.437 4.774 5 6.5 2.474 1.855 3.45 3.832 5 6.5l2.5 2.875c3.418 4.027 5.313 8.142 5.812 13.437C325 232 325 232 323 234c-2.563.187-2.563.187-5 0-1.511-1.511-1.482-3.17-1.875-5.25-1.062-4.882-2.36-8.2-6.188-11.563-4.35-1.758-8.31-1.842-12.937-1.187-4.08 1.925-6.143 4.069-8.563 7.75-1.207 1.828-1.207 1.828-2.437 3.25-2.75.5-2.75.5-5 0l-1-1c.303-2.337.639-4.67 1-7v-3c-3.675-2.784-7.573-3.871-12-5-.25-1.434-.474-2.873-.688-4.313l-.386-2.425c.074-2.262.074-2.262 1.061-3.88 3.179-2.183 6.57-1.79 10.292-1.754"/><path fill="#FAF7E6" d="m207.512 371.853 2.841.002 2.976-.01q4.896-.013 9.792-.013l6.775-.01q7.11-.009 14.221-.007c6.088 0 12.176-.014 18.264-.031q6.999-.015 13.998-.013 3.368 0 6.735-.013c3.135-.01 6.269-.007 9.403 0 .936-.007 1.872-.012 2.836-.018l2.579.013 2.247-.002C302 372 302 372 304 374c.375 2.937.375 2.937 0 6-1.763 2.048-3.24 2.892-5.925 3.273-2.497.12-4.977.132-7.478.115l-2.883.016c-3.146.013-6.291.005-9.437-.006q-3.276.003-6.552.01-6.867.005-13.732-.017c-5.874-.017-11.747-.007-17.621.01-4.51.012-9.02.008-13.53 0q-3.248-.004-6.498.008c-3.024.007-6.047-.004-9.07-.02l-2.726.018-2.494-.026-2.166-.003c-2.497-.5-3.406-1.328-4.888-3.378.527-7.637 1.01-8.109 8.512-8.147"/><path fill="#ECC72F" d="m195.75 124.688 3.672-.051c3.894.395 6.271 1.299 9.578 3.363 3.177 4.766 2.45 10.194 2.48 15.769.02 2.093.082 4.182.145 6.274.154 9.71.154 9.71-1.89 12.981-4.82 4.15-9.895 4.114-15.903 4.074l-2.408-.005a2709 2709 0 0 1-7.612-.03q-2.58-.008-5.162-.014-6.324-.017-12.65-.049c.875-7.875.875-7.875 2-9 1.599-.12 3.202-.18 4.805-.21.976-.03 1.951-.058 2.957-.087q3.1-.078 6.203-.133l2.965-.093 2.726-.06c2.804-.499 3.716-1.1 5.344-3.417.27-2.94.373-5.631.313-8.562l.01-2.366c.126-4.511.126-4.511-2.323-8.072a154 154 0 0 0-7-2c3.183-6.654 4.234-8.289 11.75-8.312"/><path fill="#0E0C01" d="m224.133 121.886 2.777.016 2.998.01 3.155.025 3.166.014q3.885.02 7.771.049v11l2.742-2.406c14.955-11.65 31.283-9.7 49.258-8.594v3c-1.446 1.223-1.446 1.223-3.48 2.418l-2.263 1.352-2.444 1.417-2.46 1.467A1477 1477 0 0 1 278 136a1071 1071 0 0 0-7.625 4.562l-3.164 1.88L265 144v2c1.79 1.39 1.79 1.39 4.137 2.758l2.673 1.635 2.878 1.732 2.887 1.767a877 877 0 0 0 12.714 7.64c.606.36 1.213.72 1.837 1.093a579 579 0 0 0 4.769 2.79L299 167v3c-35.608 2.18-35.608 2.18-48.184-8.398L248 159l-3-2-1 13h-23q-.036-10.012-.055-20.026-.008-3.408-.02-6.818a4167 4167 0 0 1-.023-9.777l-.015-3.1v-2.851l-.007-2.523c.172-2.735.519-2.873 3.253-3.019M224 125v42h17l1-16c6.438 4.625 6.438 4.625 8.404 6.042q1.787 1.279 3.596 2.527c2 1.431 2 1.431 3.987 3.093 6.71 5.257 12.79 5.057 21.076 4.713l3.779-.082q4.58-.106 9.158-.293c-2.927-2.4-5.822-4.615-9.074-6.55l-2.26-1.358-2.353-1.405C259.73 146.461 259.73 146.461 258 143l2.02-.207c4.078-1.085 7.156-3.189 10.668-5.48q2.13-1.365 4.261-2.727l2.088-1.34c3.393-2.153 6.864-4.17 10.338-6.187L289 126v-1c-17.569-1.604-29.376-.505-43.328 10.785C244 137 244 137 241 138v-13z"/><path fill="#E9C521" d="m286 130 1 2 3.625.313c4.943.463 7.574 2.598 11.375 5.687l-1 5-6 2 1.125 2.625c1.187 4.58-.07 7.266-2.125 11.375h4v-2h2v-2h2l1-2c2.788 1.394 2.813 2.906 3.813 5.813 1.686 4.345 2.99 6.844 7.187 9.187 2.328.834 4.584 1.431 7 2-2.78 3.475-4.218 4.88-8.687 5.563-5.136-.305-9.691-2.442-14.313-4.563v-4l-2.36-1.293C284.77 159.632 274.388 152.864 264 146c1.413-4.238 4.49-5.339 8.188-7.437q1.99-1.153 3.98-2.31l1.947-1.128c2.698-1.61 5.29-3.353 7.885-5.125"/><path fill="#0C0B06" d="m155.895 121.839 3.015-.03 3.258-.012 3.36-.017q3.525-.015 7.048-.02c3.58-.01 7.159-.04 10.738-.073l6.854-.015 3.227-.038c6.25.019 10.934.675 16.605 3.366 5.535 5.713 4.22 13.461 4.25 20.875l.063 3.879.015 3.738.028 3.418c-.539 4.672-2.389 7.197-5.793 10.34-4.685 3.2-9.305 2.885-14.829 2.848l-2.404-.005c-2.527-.005-5.053-.018-7.58-.03q-2.574-.008-5.148-.014Q172.3 170.032 166 170l-.25 3.187c-.946 6.072-2.943 11.94-4.75 17.813h69v1h-80c1.217-5.474 2.328-10.351 4.125-15.563l1.07-3.128L156 171l-2.266-.664c-9.047-2.913-9.047-2.913-11.359-6.399-2.867-6.124-2.595-11.588-2.625-18.25l-.062-3.42c-.05-10.449-.05-10.449 3.312-15.267 4.182-3.868 7.265-5.117 12.895-5.161m-9.832 6.661c-4.238 5.136-3.284 10.381-3.313 16.812l-.062 3.46-.016 3.341-.028 3.056c.567 4.508 2.89 7.942 6.356 10.831 2.909.97 4.806 1.137 7.835 1.161l2.974.03 3.21.012 3.308.017q3.465.014 6.932.02c3.53.01 7.058.041 10.587.072q3.367.01 6.736.016l3.192.038c6.54-.02 10.608-.877 16.072-4.636 2.653-3.977 1.67-9.829 1.655-14.499-.001-2.093.04-4.182.085-6.274q.008-2.005.008-4.012l.021-3.671c-.805-4.286-2.159-5.663-5.615-8.274-5.504-2.22-10.75-2.293-16.59-2.266l-2.737-.005q-2.853-.003-5.706.01c-2.892.011-5.784 0-8.676-.012q-2.784 0-5.568.007l-2.593-.012c-6.648.051-12.82.312-18.067 4.778"/><path fill="#070705" d="m76.79 120.87 3.75-.009 4.085.006 4.159-.003q4.362-.001 8.726.006 5.604.006 11.208-.004 4.296-.004 8.59 0 2.068 0 4.135-.002 2.883-.002 5.768.007l3.322.002C133 121 133 121 134 122c.099 2.165.13 4.333.125 6.5l.008 3.594C134 135 134 135 133 136c-3.03.089-6.037.115-9.066.098l-2.754-.005a3599 3599 0 0 1-8.743-.03q-2.954-.008-5.912-.014Q99.263 136.032 92 136v3h36v15H93v14c-2 2-2 2-4.063 2.227l-2.507-.032-2.715-.02-2.84-.05-2.863-.027A936 936 0 0 1 71 170c-1.183-2.366-1.127-3.795-1.13-6.434l-.009-2.78.006-3.009-.003-3.078q0-3.225.006-6.448.005-4.954-.007-9.91 0-3.125.004-6.251l-.006-3.015.01-2.77.002-2.452c.28-4.087 3.533-2.98 6.916-2.982M73 124v43h16l1-1v-15h35v-9H90v-9h41v-9z"/><path fill="#ECC835" d="M307 200h35c0 12.927-.62 21.45-9 31-1.746 1.512-1.746 1.512-3.437 2.688l-1.684 1.199c-6.843 4.055-14.562 4.116-22.281 2.66-1.555-.445-3.083-.983-4.598-1.547l2-1-1-3 3-1v5h4l-1-3h2l-1-3 7-1 2 4c1.666.043 3.334.04 5 0 1.203-.975 1.203-.975 1.055-2.785-.657-8.321-4.134-13.498-10.055-19.215l-.937-2c-1.027-2.258-1.027-2.258-3.688-4.062-.784-.64-1.567-1.28-2.375-1.938z"/><path fill="#E9C52B" d="M309 125c3.716-.2 4.772-.152 8 2v2h2l.621 2.152.817 2.786.808 2.777c.544 2.225.544 2.225 1.754 3.285.072 1.52.084 3.042.063 4.563l-.028 2.503L323 149h2l.813 2.875c.937 3.378.937 3.378 4.187 5.125l3.063.375C336 158 336 158 337.375 159.75c.696 2.505.668 4.661.625 7.25-3.396.087-6.791.14-10.187.188l-2.909.076c-9.019.093-9.019.093-12.904-3.264-2.605-2.602-2.993-3.925-3.34-7.667q.001-2.19.047-4.38l.013-2.337c.017-2.456.054-4.91.092-7.366q.024-2.502.042-5.004.051-6.123.146-12.246"/><path fill="#43401B" d="m150.188 198.813 2.271.04c1.847.036 3.694.09 5.541.147l.028 2.316c.301 19.61 1.746 35.7 9.972 53.684l2.313 5.25q.84 1.875 1.687 3.75c-2.104.081-4.208.14-6.312.188l-3.551.105C159 264 159 264 157.32 262.975c-2.06-3.08-1.661-6.287-1.587-9.862q-.003-2.391-.011-4.783c.008-2.504.027-5.007.068-7.51.563-11.071.563-11.071-4.03-20.675A69 69 0 0 0 148 217l-2.652-2.54a775 775 0 0 0-4.625-4.187C139 208 139 208 138.559 204.914c.441-2.914.441-2.914 1.43-4.777 3.23-1.826 6.597-1.447 10.198-1.325"/><path fill="#CDAE25" d="M249.569 109.815c2.225-.002 4.45-.02 6.675-.04q2.137-.005 4.276-.005l3.909-.013c3.53.24 6.287.965 9.571 2.243l-3 4 5 1v2l-2 1 22 1v1l-2.867-.067c-25.419-.786-25.419-.786-47.133 11.067h-2v-11h-21v-1l1.934-.184 2.503-.254c.824-.08 1.648-.162 2.497-.246 2.053-.105 2.053-.105 3.066-1.316a59 59 0 0 0 .062-4.063L233 111c5.297-1.766 11.022-1.186 16.569-1.185"/><path fill="#FBF9ED" d="M223 393h58l-3 10c-2.418 1.209-3.976 1.14-6.677 1.161l-2.943.03-3.189.012-3.265.017q-3.424.014-6.847.02c-3.499.01-6.997.041-10.495.072q-3.32.01-6.643.016l-3.182.038-2.952-.01-2.6.011C227 404 227 404 225.263 402.977 224 401 224 401 223 393"/><path fill="#EBC729" d="m329.75 169.813 2.402.04c1.95.036 3.899.09 5.848.147l.367 1.977c.743 3.876 1.487 7.593 2.758 11.335C342 186 342 186 342 191h-32c3.204-2.136 4.02-2.231 7.688-2.125l2.449.055L322 189c-.86-2.232-.86-2.232-3.375-3.125-3.426-1.142-5.195-1.018-8.625.125l1-5-5-1c1.269-2.537 2.497-2.786 5-4l2-2 1.875-.437c2.215-.403 2.215-.403 3.71-2.086 3.629-2.22 7.004-1.8 11.165-1.665"/><path fill="#ECC839" d="m223.563 110.813 2.767.04q3.336.052 6.67.147c1.381 2.763 1.19 4.947 1 8-2.398 2.398-3.273 2.314-6.562 2.563-3.018.021-3.018.021-5.438 1.437a86 86 0 0 0-.562 4.563l-.254 2.503L221 132h-6v-3h-3l-1.812-1.875c-5.271-5.12-12.381-4.46-19.274-4.54-1.057-.018-2.114-.038-3.203-.058-3.362-.06-6.724-.106-10.086-.152l-6.855-.117q-8.385-.143-16.77-.258v-1l3.532-.044c4.323-.058 8.644-.135 12.966-.218q2.806-.051 5.613-.084a963 963 0 0 0 8.065-.142l2.538-.02c4.268.087 4.268.087 7.804-1.925L196 117a132 132 0 0 1 8-3l2.025-.796c5.958-2.242 11.215-2.572 17.537-2.391"/><path fill="#080701" d="M209.887 209.605c4.3 2.839 8.06 6.476 9.836 11.399.34 1.871.34 1.871.277 4.996l-2 2c-1.914-.098-1.914-.098-4-1-1.71-1.996-1.71-1.996-3.375-4.437-2.886-3.87-4.664-5.84-9.625-6.563-5.523-.703-8.252.362-12.52 3.613-2.892 2.71-3.813 5.248-4.542 9.012-.837 4.274-.837 4.274-1.938 5.375-2.5.125-2.5.125-5 0-1.613-1.613-1.287-3.334-1.375-5.562.085-6.602 2.563-10.555 7.09-15.196 8.008-7.255 17.374-8.562 27.172-3.637"/><path fill="#070601" d="M312.895 209.605c5.988 3.967 9.968 9.607 12.105 16.395.313 3.313.313 3.313 0 6-2 2-2 2-4.562 2.188C318 234 318 234 317 233c-.32-1.41-.607-2.829-.875-4.25-1.062-4.882-2.36-8.2-6.187-11.562-4.35-1.76-8.312-1.843-12.938-1.188-4.08 1.925-6.143 4.069-8.562 7.75-1.208 1.828-1.208 1.828-2.438 3.25-2.75.5-2.75.5-5 0l-1-1c0-5.904 1.94-8.966 5.984-13.2 7.919-7.074 17.43-7.943 26.91-3.195"/><path fill="#EEC937" d="m172.098 135.602 2.927-.012 3.037.035 3.05-.035 2.923.012 2.668.01c2.76.466 3.652 1.155 5.297 3.388.398 2.777.398 2.777.375 5.938l.023 3.152c-.467 3.414-.684 4.744-3.398 6.91-3.077.488-6.083.375-9.187.25l-2.561-.055A444 444 0 0 1 171 155l1-3c2.063-.687 2.063-.687 4-1v-2h4l1-11c-5.55 5.328-10.605 10.675-15 17-1.473-1.094-1.473-1.094-3-3-.434-3.031-.434-3.031-.437-6.5l-.06-3.469c.497-3.031.497-3.031 2.21-4.696 2.686-1.568 4.29-1.722 7.385-1.733"/><path fill="#EDC833" d="M224 140c5.393 0 8.111.436 13 2l.25 1.875c.563 2.31.563 2.31 2.813 3.375L242 148l-2 1v18h-16z"/><path fill="#EAC625" d="m166 170 6 1v2h5v3l4-1-1 3h2v2h4l1 3c2.015.733 2.015.733 4 1l-3 1v2h-4v2h-3l-1 2h-19c.698-5.581 1.384-9.803 3.063-15l1.097-3.437z"/><path fill="#E9C52B" d="M263 148c2.153 1.006 2.153 1.006 4.293 2.414l2.397 1.55 2.498 1.661q2.546 1.656 5.093 3.309l2.461 1.608c3.516 2.27 7.115 4.377 10.738 6.47L292 166v1c-4.29.205-8.58.328-12.875.438l-3.648.177c-7.733.147-12.456-.966-18.707-5.58-2.698-3.102-2.677-5.92-2.415-9.898 1.323-4.384 4.66-4.563 8.645-4.137"/><path fill="#050501" d="M191 134c1.777 1.016 1.777 1.016 3 3 .325 2.906.464 5.536.438 8.438l.06 2.314-.002 2.244.006 2.037c-.752 2.948-2.113 4.132-4.502 5.967-4.106.82-8.258.603-12.437.563l-3.432.072c-8.171-.015-8.171-.015-12.377-2.733-3.211-5.313-2.67-10.914-1.754-16.902 5.071-9.49 22.12-7.027 31-5m-28 5c-.598 3.09-.598 3.09-.437 6.5l.003 3.469c.173 3.036.173 3.036 1.961 4.937L166 155l1.758-2.195c4.202-5.201 8.39-10.202 13.242-14.805l-1 11h-4v2l-5 2v2c2.938.108 5.873.187 8.813.25l2.525.102c4.717.178 4.717.178 8.713-1.989 1.181-2.942 1.348-5.256 1.324-8.425l.023-3.16c-.458-3.193-.878-3.87-3.398-5.778-2.347-.46-2.347-.46-4.965-.398l-2.924-.012-3.048.035-3.038-.035-2.927.012-2.672.01c-2.929.468-4.31 1.33-6.426 3.388"/><path fill="#CFAC04" d="M213 129h2v3h6v33l-9 3a212 212 0 0 0-6.875 3.125c-8.475 4.027-8.475 4.027-13.5 4.25l-2.273.148c-3.47-.772-5.04-2.933-7.352-5.523l1.725-.044c2.613-.075 5.225-.172 7.838-.268l2.712-.069c6.335-.255 11.502-1.04 16.6-5.119 2.67-3.561 2.24-7.314 2.223-11.574l-.005-2.072c-.005-2.18-.018-4.361-.03-6.542q-.008-2.22-.014-4.439-.017-5.437-.049-10.873"/><path fill="#B49606" d="M237 224h26l1 12h-28z"/><path fill="#524B1A" d="M152 169h19v1h-5l-.25 3.188c-.946 6.071-2.943 11.939-4.75 17.812h69v1h-80c1.217-5.474 2.328-10.351 4.125-15.562l1.07-3.13L156 171z"/><path fill="#EAC62F" d="M248 187v24h-7c-1.602-1.602-1.157-3.475-1.25-5.687-.505-5.197-1.67-7.827-5.75-11.313-2.939-1.295-5.886-2.227-9-3v-2c6.87-4.122 15.447-3.51 23-2"/><path fill="#534C1A" d="M338 170h8c.804 1.786 1.592 3.58 2.375 5.375l1.336 3.023C351 182 351 182 353 192h-83v-1h72l-4-13c-.25-4.812-.25-4.812 0-8"/><path fill="#DEBC22" d="M269 211c5.68.94 9.724 1.862 14 6l-1 1.688c-1.131 2.615-1.157 4.493-1 7.312h6v2l-2 2-1 2h-2v-2c-3.099 1.638-3.099 1.638-3.75 4.063L278 236l1 1v3l-2 2h-3l-1 4q-.86-6.512-1.709-13.025l-.582-4.429q-.42-3.187-.834-6.374l-.508-3.872C269 215 269 215 269 211"/><path fill="#EBC72A" d="M304 124h1v30l-5 1v2h-2v2h-4c.875-7.875.875-7.875 2-9-.468-2.9-.867-3.867-3-6l7-1 1-5c-4.605-3.454-8.36-4.833-14-6 1.342-4.026 3.423-4.883 7-7h2l1 2h6z"/><path fill="#151202" d="m224.133 121.886 2.777.016 2.998.01 3.155.025 3.166.014q3.885.02 7.771.049v11l3.867-2.441 5.008-3.122 2.55-1.615 2.442-1.513 2.254-1.413L262 122l2 1c1.885.153 3.774.25 5.664.316l3.399.127 3.562.12 3.586.13q4.395.16 8.789.307v1l-2.085-.099c-16.83-.599-27.99 1.314-41.243 12.013C244 138 244 138 241 138v-13h-17v34h-1l-1-20h-1a1890 1890 0 0 1-.062-7.938l-.026-2.287c-.009-1.925.036-3.85.088-5.775 1-1 1-1 3.133-1.114"/><path fill="#ECC72E" d="m281.875 139.938 2.086.013q2.52.02 5.039.049c1.765 3.088 2 4.233 2 8h-2v-4h-2v5h-2l-.812 2.938L283 155c-3 1-3 1-4.81.196l-1.983-1.286-2.158-1.377-2.236-1.47-2.272-1.46A682 682 0 0 1 264 146c1-3 1-3 4-5 4.619-1.064 9.16-1.122 13.875-1.062"/><path fill="#46431D" d="m344 199 6.813-.125 3.832-.07C358 199 358 199 361 201c.652 3.129.652 3.129 0 7-2.138 3.014-4.73 5.436-7.437 7.938-.708.683-1.415 1.367-2.143 2.072-5.21 4.99-5.21 4.99-6.42 4.99z"/><path fill="#E9C523" d="M206 200c3.958-.058 7.916-.094 11.875-.125l3.418-.05 3.262-.02 3.015-.032C230 200 230 200 232 202c.466 3.218.222 5.983-1 9-2.803 1.997-5.708 3.049-9 4l-.375-2.437L221 210l-2-1 1 4h-3v-2l-6-2 1-6-6 1z"/><path fill="#423E19" d="m243.293 109.902 2.14.005c2.251.005 4.503.018 6.755.03q2.29.009 4.583.014 5.614.017 11.229.049l1 3c-6.007 5.75-11.667 6.822-19.67 6.722-6.374-.35-11.615-2.25-16.33-6.722v-2c3.506-1.169 6.648-1.125 10.293-1.098"/><path fill="#EBC72B" d="M329 170h9l.367 1.977c.743 3.876 1.487 7.593 2.758 11.335C342 186 342 186 342 191h-15v-4l3-1c.733-2.015.733-2.015 1-4h-3l-1 3h-2l-1-3v3h-2l-1-3c3.228-2.152 4.284-2.2 8-2l-2-4 2-3z"/><path fill="#EAC62A" d="m268.98 124.805 3.526.02 3.682.05 3.716.027q4.548.036 9.096.098c-5.847 4.697-9.93 7.098-17.3 8.398-3.683.821-7.018 2.208-10.473 3.7-2.066.837-4.054 1.42-6.227 1.902-.312-3.187-.312-3.187 0-7 4.195-5.102 7.403-7.26 13.98-7.195"/><path fill="#ECC731" d="M269 186c3.479 1.061 6.73 2.412 10 4v1l-1.758.078c-5.458.396-8.956 1.249-13.242 4.922-3.74 4.384-3.689 9.47-4 15l-5 1c-.087-3.958-.14-7.916-.187-11.875l-.077-3.418-.029-3.262-.048-3.015L255 188c4.497-2.998 8.726-2.59 14-2"/><path fill="#C7A608" d="m324 149 .75 1.75c1.481 2.666 2.87 4.332 5.25 6.25l3.125.5c2.875.5 2.875.5 4.25 2.25.696 2.505.668 4.661.625 7.25-3.437.058-6.875.094-10.312.125-.977.017-1.953.034-2.96.05l-2.841.02-2.619.032C317 167 317 167 314 165l1.41-1.152c2.574-2.992 2.849-6.563 3.649-10.352C320 151 320 151 322.098 149.66z"/><path fill="#C4A307" d="m169.858 157.886 2.396.016 2.588.01 2.72.025 2.733.014q3.353.018 6.705.049l-2 1c.914 3.082.914 3.082 3 6 2.759.865 5.07.904 8 1v-2l8-1v-2l7-2c-1.396 3.373-2.924 5.042-6 7-3.758 1.253-7.255 1.124-11.168 1.098l-2.408-.005a2709 2709 0 0 1-7.612-.03q-2.58-.008-5.162-.014-6.324-.017-12.65-.049c.993-8.938.993-8.938 3.858-9.114"/><path fill="#CEAB05" d="M281 156c6.911.471 12.722 3.206 19 6v2l7 1 1-2 2.563 2.375c3.316 2.794 6.233 3.7 10.437 4.625-2.78 3.475-4.218 4.88-8.687 5.563-5.136-.305-9.691-2.442-14.313-4.563v-4l-2.957-1.645-3.856-2.167-1.947-1.08c-3.105-1.755-5.915-3.368-8.24-6.108"/><path fill="#EDC832" d="m303 174 9 1c-2 3-2 3-5 5l4 1v4l4-2 2 2c2.57.648 2.57.648 5 1l1 3c-3.479 1.16-6.35 1-10 1l-3 1c-2.061.069-4.125.085-6.187.063l-3.293-.028L298 191l-2-4 7-2h-3l.188-2.25c-.219-3.204-1.09-4.39-3.188-6.75h5z"/><path fill="#D1AD04" d="m286 130 1 2 3.625.313c4.943.463 7.574 2.598 11.375 5.687l-1 5c-3.453 1.15-4.715 1.137-8.062-.469-4.581-2.069-8.93-1.865-13.875-1.719l-2.65.042A607 607 0 0 0 270 141c3.463-2.861 7.007-5.366 10.813-7.75l2.957-1.86z"/><path fill="#ECC933" d="m291 225 1 4 1.938.375L296 230l1 2c2.025.652 2.025.652 4 1l-1 2-5-1-1 3c-5.42 3.686-10.468 5.71-17 5l2-4-2-1c.813-2.937.813-2.937 2-6l3-1v2l2-1-1-2 4-1v-2z"/><path fill="#EDC833" d="M178 173c2.343.256 4.678.593 7 1l1 2c2.527.656 2.527.656 5 1v2q2.183.794 4.375 1.563l2.46.878c2.193.819 2.193.819 4.165-.441l2 5-9 2v2l-1.934-.035-2.504-.028-2.496-.035c-2.058-.135-2.058-.135-3.066 1.098-1.666.04-3.334.043-5 0l1-3 3 1v-2h4v-2l2-1h-4v-4h-4v-2h-2l-1-2h-2z"/><path fill="#45421C" d="M343 233h1q.111 6.14.165 12.28.022 2.09.061 4.179c.037 2 .052 4.001.067 6.002l.048 3.65L344 262c-3.314 2.21-4.345 2.225-8.187 2.125l-2.731-.055L331 264l1.355-2.719c4.494-9.208 7.837-18.434 10.645-28.281"/><path fill="#EBE7C6" d="M168.695 136.805q2.216.02 4.43.07l2.285.027c1.864.024 3.727.06 5.59.098l-2.437 2.813c-4.28 4.986-8.416 10.09-12.563 15.187-1.48-1.09-1.48-1.09-3-3-.363-3.066-.363-3.066-.312-6.562l.011-3.504c.465-4.538 1.496-4.891 5.996-5.13"/><path fill="#EAC623" d="m173 209 2.25.563L177 210v8l2 1-.96 1.703c-1.109 2.449-1.43 4.38-1.665 7.047l-.227 2.422L176 232h-1v-6h-3v2l-3-1v-2h3v-2l3-1 1-2-4-2-1 4h-6l1-5h-3v-8l1 2h3v-2c2.544-1.272 3.326-.786 6 0"/><path fill="#E9C425" d="M275 156a1357 1357 0 0 1 5.688 3.25l3.199 1.828c2.91 1.797 5.467 3.764 8.113 5.922-4.395.145-8.79.234-13.187.313l-3.776.126c-9.06.122-9.06.122-12.016-1.574-1.384-1.385-1.384-1.385-3.021-3.865 5.75-.125 5.75-.125 8 1l2-1 1-3c2.063-.687 2.063-.687 4-1z"/><path fill="#484011" d="M308 124h17v25h-2l-.113-1.723c-.34-3.982-.766-7.437-2.45-11.09C319 133 319 133 319 129h-2v-2l-8-2v33h-1z"/><path fill="#BD9F11" d="M271 199h73v1h-37c2.89 4.853 2.89 4.853 7 8l-1 3-3.062-1.375C306.353 208.081 302.77 207 299 206l-1-6h-27z"/><path fill="#E9C527" d="m307 215 2 2-3 2v3h-2v-2h-4l-1 4-2-2-2 5c3.093 2.977 3.093 2.977 7 4l1 4h-2v-2l-2.375-.437C296 232 296 232 294 231v-2h-2l-1-3c-2.015-.733-2.015-.733-4-1 4.824-8.164 10.361-11.49 20-10"/><path fill="#E7C319" d="M329 178v2l-2.937.813L323 182l-1 3h2v-3l3 1h-2v2l2.313-2.062L330 181l3 1-2 2a89 89 0 0 0-2 4l-2-1v4h-17c3.204-2.136 4.02-2.231 7.688-2.125l2.449.055L322 189c-.86-2.232-.86-2.232-3.375-3.125-3.426-1.142-5.195-1.018-8.625.125l1-7c2.438.375 2.438.375 5 1l1 2 3 1 .688-2.437C322 178 322 178 324.5 177.125 327 177 327 177 329 178"/><path fill="#EBC82C" d="M245 120h14l1 2c-1.345 4.034-3.953 5.127-7.437 7.188l-1.815 1.115C246.279 133 246.279 133 244 133a535 535 0 0 1-.062-4.25l-.036-2.39C244 124 244 124 245 120"/><path fill="#CFAC04" d="M210 131h1c.108 1.603.186 3.207.25 4.813l.14 2.707c-.39 2.48-.39 2.48-2.171 4.292-3.114 1.667-5.75 1.388-9.219 1.188l-1 4-2-1v3h4v2h-7v-13h1v7l2-1 1-3h3l.125-2.25c1.234-3.878 3.396-4.833 6.875-6.75h2z"/><path fill="#ECC72F" d="M234.313 152.625c1.678 1.367 3.168 2.835 4.687 4.375-6.56 7.634-6.56 7.634-10.09 8.531C227 165.5 227 165.5 224 165v-10c7.337-3.18 7.337-3.18 10.313-2.375"/><path fill="#EAC627" d="M183 200h14v3h-2l-1 3h-2v2c-1.863 1.508-1.863 1.508-4.312 3.125l-2.426 1.633C183 214 183 214 180 214l2-1-1-3 2-1 2 1c-1.634-1.708-2.87-2.935-5-4v-3h3z"/><path fill="#ECC831" d="M237 225h11l1 11h-13z"/><path fill="#EAC625" d="M224 125h16v11l-4-2a102 102 0 0 0-5.75-1.125l-2.984-.508L225 132z"/><path fill="#E2BE1B" d="M247 187h1v24h-7c-1.643-1.643-1.319-3.68-1.5-5.937-.252-3.669-.252-3.669-1.5-7.063h3l1-2 4 1z"/><path fill="#E8C520" d="M310 138h3v2h-2l.5 1.75c.5 2.25.5 2.25.5 6.25l3 1v-5l7-1v3l-1.875 1.813c-2.348 2.084-2.348 2.084-3.062 5.25-1.314 3.63-2.647 4.314-6.063 5.937l-2 1q-.042-5.22-.062-10.437l-.026-3.01-.01-2.862-.016-2.65C309 139 309 139 310 138"/><path fill="#B89E31" d="m303 116 2.941 1.953c4.294 2.453 8.13 2.705 12.997 2.797l2.36.09c1.9.07 3.801.117 5.702.16v1h-21v36h-1l-1-30h-7v-5h6z"/><path fill="#EBC72A" d="M290 114c1.416-.054 2.833-.093 4.25-.125l2.39-.07c2.567.212 4.152.908 6.36 2.195v7l-2.375.438c-2.59.44-2.59.44-4.625 1.562v-4h-11c2-3 2-3 4-4z"/><path fill="#CBA90B" d="M231 208c.934 3.01 1.044 3.867 0 7a166 166 0 0 0-.562 5.688l-.254 3.011L230 226l-2-1v-2h-7v4l-2-1c-1.326-4.971-1.326-4.971-1-8 3.68-4.13 6.771-5.298 12-7z"/><path fill="#E8E4C3" d="m149 199-1 17c-8.961-7.633-8.961-7.633-9.312-10.937.312-3.063.312-3.063 1.375-4.938C142 199 142 199 149 199"/><path fill="#CCA907" d="M269 211c5.818 1.042 9.631 1.772 14 6l-3 8-1-2c-2.626-1.575-3.871-2-7-2l-2 4z"/><path fill="#464017" d="M181 137c1.361 2.722.704 4.183.063 7.125l-.59 2.758L180 149h-4v2l-1.937.875c-2.215.953-2.215.953-3.063 3.125h15v1a879 879 0 0 1-7.75.125l-2.21.05c-3.844.036-6.786 0-10.04-2.175 4.678-6.04 9.44-11.752 15-17"/><path fill="#CBC7B7" d="M92 136h37l-1 3H92z"/><path fill="#EEC93A" d="M240 148v19h-16v-2l3.063-.062c5.063-.662 7.754-4.233 10.937-7.938l-4-4c4.875-5 4.875-5 6-5"/><path fill="#E5C120" d="M255 164c4.265 1.706 6.614 3.098 10 6h-2v7l2 1-10 1z"/><path fill="#EAC62C" d="M215 140h5c1.135 3.61 1.1 6.984 1.063 10.75l-.028 3.547L221 157l-6 1z"/><path fill="#CEB239" d="M167 136c3.625-.087 7.25-.14 10.875-.187l3.129-.077 2.988-.029 2.761-.048L189 136l2 3c-1.282 2.86-2.492 5.07-5 7h-4v2h-2q.212-2.188.438-4.375c.08-.812.162-1.624.246-2.46C181 139 181 139 182 137h-15z"/><path fill="#E4C113" d="m278 141-2 1.625c-2.31 2.275-2.31 2.275-2.25 5.625L274 151h6l-1 4q-2.628-1.4-5.25-2.812l-2.953-1.583A54 54 0 0 1 264 146c1-3 1-3 4-5 3.665-.858 6.412-1.242 10 0"/><path fill="#EAC625" d="m205 180 5 1-1 4-2-1v5l2 1c-2.941.98-4.825 1.116-7.887 1.098l-2.842-.01-2.958-.025-2.995-.014q-3.66-.018-7.318-.049l1-2 9 1v-2l9-2-1-3z"/><path fill="#ECC733" d="M309 125h5c2 2 2 2 2 6-1.5 1.75-1.5 1.75-3 3l5-1v6h-9z"/><path d="M306 122h22v14h-3v-12h-17v6h-2z"/><path fill="#C8B666" d="M202 116c1.625 1.25 1.625 1.25 3 3v4l-51-1v-1l3.532-.044c4.323-.058 8.644-.135 12.966-.218q2.806-.051 5.613-.084a963 963 0 0 0 8.065-.142l2.538-.02c4.315.065 4.315.065 7.902-1.976L196 117c2.123-.708 3.766-1 6-1"/><path fill="#E8C523" d="M255 225h8l1 11h-9z"/><path fill="#E2C014" d="M263 148c2.813 2 2.813 2 5 4l-6 3v3l-6 3c-1.667-1.667-1.21-3.656-1.25-5.937l-.078-2.715L255 150c3.276-2.184 4.2-2.543 8-2"/><path fill="#E5C224" d="M167 159h10l2 8h-13z"/><path fill="#EDC834" d="M328 157c2.69.176 5.329.618 8 1l1 8h-13c2.875-7.875 2.875-7.875 4-9"/><path fill="#E6C31D" d="m201 215 3 1-1 7h-3v-2l-3.062.5c-3.7.47-7.214.576-10.938.5 5.09-5.227 7.544-7.4 15-7"/><path fill="#ECE9BB" d="M165 176c2.66 2.54 4.795 4.67 5.375 8.438C170 187 170 187 168.313 189.313c-2.704 1.972-4.043 2.05-7.313 1.687.497-5.661 1.545-9.877 4-15"/><path fill="#ECC835" d="M165 175q2.221.423 4.438.875l2.496.492L174 177l1 2 2-1 2 2-2 1 1 4h-3l-2-2c-.082 3.044.024 5.072 1 8h-8l1.5-1.687c1.851-2.854 2.046-3.962 1.5-7.313-1.185-2.461-2.543-4.678-4-7"/><path fill="#040300" d="M264 122h32v3c-2.812 2.25-2.812 2.25-6 4l-3-1 2-4h-26z"/><path fill="#BB9D0B" d="M213 129h2v3h6v12l-1-4h-5v17h-1z"/><path fill="#ECE8BC" d="M336 176h2a415 415 0 0 1 2 4.688l1.125 2.636c.894 2.733 1.04 4.823.875 7.676-2.25.313-2.25.313-5 0-2.375-2.25-2.375-2.25-4-5 .125-1.937.125-1.937 1-4l1.063-3.25z"/><path fill="#DBBA2E" d="m269 111 5 1-3 4 5 1v2c-3.633 2.325-6.76 2.393-11 2l-2-3-2-1c5.75-4 5.75-4 8-4z"/><path fill="#CAA803" d="M275 156a1357 1357 0 0 1 5.688 3.25l3.199 1.828c2.907 1.795 5.498 3.73 8.113 5.922-5.875-.875-5.875-.875-7-2a168 168 0 0 0-6.562-.562l-3.63-.254L272 164v-5l3-1z"/><path fill="#EDC834" d="M296 125c1.29 1.46 1.29 1.46 2.625 3.375l1.352 1.898C301 132 301 132 301 134c-5.128 1.82-9.177-.14-14-2 1.315-3.944 4.615-7 9-7"/><path fill="#BBA133" d="m263 117 2 4h31v1l-3.073.076q-5.644.142-11.289.296-2.442.065-4.885.125-3.512.088-7.023.187l-2.206.05c-3.086.09-5.576.283-8.524 1.266v-3l-15-1v-1l3.395-.184 4.417-.254 2.237-.119c3.182-.187 5.913-.43 8.951-1.443"/><path fill="#EBC72A" d="M313 221c2.797 2.068 3.027 3.144 3.688 6.688L317 231l-1-2-6 2-1 5h-4v-6l2.375-.625c2.927-1.174 2.927-1.174 3.875-4.437L312 222z"/><path fill="#E6E2C0" d="M354 199c6 1 6 1 7 2 .438 3.25.438 3.25 0 7-1.817 2.135-3.659 3.39-6 5z"/><path fill="#D1AD04" d="M197 200h9c-1.875 5.875-1.875 5.875-3 7-1.849.234-3.705.413-5.562.563l-3.067.253L192 208c0-2 0-2 1.375-3.625C195 203 195 203 197 203z"/><path fill="#EECF4F" d="M271 111c2.98-.055 5.958-.094 8.938-.125l2.517-.05c5.82-.046 10.905.73 16.545 2.175v1h-9l-1 4c-3.75 1.125-3.75 1.125-6 0l2-5-14-1z"/><path fill="#E9C51F" d="M200 125c3.531.321 5.558.65 8.375 2.875C210 130 210 130 210 133c-2.375 1.75-2.375 1.75-5 3l-2-1 1-2h-2v-3h-2l1-3-1-1z"/><path fill="#E0C032" d="M278 232c.748 2.9 1 4.997 1 8l-2 2h-3l-1 4-1-13c3-1 3-1 6-1"/><path fill="#E9C61F" d="m302 214.813 2.688-.043C307 215 307 215 309 217c-3.24 2.16-4.59 2.319-8.375 2.563-3.628.244-7.072.655-10.625 1.437 5.986-6.144 5.986-6.144 12-6.187"/><path fill="#E8C41E" d="M256 187c1.245 2.49.777 3.41 0 6h3l1-4h3c1.25 2.625 1.25 2.625 2 6-1.875 3.375-1.875 3.375-4 6l-2-2c.375-2.625.375-2.625 1-5l-4 1-1 4a920 920 0 0 1-.062-5.437l-.036-3.06C255 188 255 188 256 187"/><path fill="#E8C414" d="M227 229c1 1 1 1 1.098 2.848L228 238c-4.845-1.585-4.845-1.585-7-3-.937-3.187-.937-3.187-1-6 2.684-1.342 4.153-.73 7 0"/><path fill="#EAC627" d="m194.188 220.875 3.292.055 2.52.07v2l4-1v2h-6l-1 2-2-1-1 2c-3.875-.875-3.875-.875-5-2a179 179 0 0 0-4-2c3.527-2.351 5.029-2.214 9.188-2.125"/><path fill="#EAC62D" d="m229 203 3 1c.063 3.25.063 3.25-1 7-2.827 1.85-5.797 2.958-9 4v-4l3-1v-3c2-2.187 2-2.187 4-4"/><path fill="#E9C521" d="M224 140c4.82-.235 8.463.548 13 2l-2 1v2l-4 1v-2h-2v2h-2l-1 3c-2-2-2-2-2.125-5.625z"/><path fill="#2D2608" d="m262 122 2 1c1.885.153 3.774.25 5.664.316l3.399.127 3.562.12 3.586.13q4.395.16 8.789.307v1l-2.244.012c-3.399.034-6.795.104-10.193.175l-3.53.018c-7.584.192-12.816 1.356-19.033 5.795 1.355-4.877 3.717-6.486 8-9"/><path fill="#C4A523" d="M237 143c4.785 2.485 7.86 4.48 11 9l-3 1-3-2-1 16h-1a2399 2399 0 0 1-.062-8.937l-.026-2.577-.01-2.45-.016-2.27C240 149 240 149 241 148l-4-2z"/><path fill="#D2AE05" d="M224 157h6l2 5c-1.187 1.5-1.187 1.5-3 3-2.687.188-2.687.188-5 0z"/><path fill="#D1AF0E" d="m176 149 6 1 1 5h-12l1-3c2.063-.687 2.063-.687 4-1z"/><path fill="#CDAD1C" d="M201 138h1v6h-2l-1 4-2-1v3h4v2h-7v-13h1v7l2-1 1-3h3z"/><path fill="#D8D5CB" d="M407 136h37l-1 3-36-2z"/><path fill="#EDCF4B" d="M161 200h1v7l3-1 3 3-1 2h-3l-1 6h3l-1 5c-3.841-4.843-4.136-8.66-4.062-14.687l.013-2.127q.02-2.594.049-5.186"/><path fill="#E6C30D" d="M322 143v3l-1.875 1.813c-2.498 2.571-3.192 4.765-4.125 8.187h-4v-2h2l1-10c3-1 3-1 7-1"/><path fill="#F2EDBF" d="M245 120h13c-1.75 2.938-1.75 2.938-4 6l-4 1z"/><path fill="#EECB3D" d="M337 200h5v14c-4.228-2.995-4.228-2.995-6-5-.375-3.312-.375-3.312 0-6l4 2 1-3z"/><path fill="#514A1A" d="M328 144c3.636 3.434 6.361 6.797 9 11-5.625.25-5.625.25-9-2-.293-2.164-.293-2.164-.187-4.625l.082-2.477z"/><path fill="#EBC72C" d="M272 220c2.987.498 4.393 1.262 7 3l-1 4h-3l-1 2v-2h-3c-.043-2-.04-4 0-6z"/><path fill="#010100" d="m212 139 2 1c.058 3.292.094 6.583.125 9.875l.05 2.84.02 2.715.032 2.507C214 160 214 160 212 162c-.881-2.978-1.067-5.453-.879-8.547l.147-2.558.17-2.645.158-2.691q.194-3.28.404-6.559"/><path fill="#ECC732" d="m244 156 2 1c.976 2.927 1.165 4.947 1.188 8l.042 2.625C247 170 247 170 245 173l-3-1v-2h2z"/><path fill="#E6C30D" d="m185 180 2 3c2.06.724 2.06.724 4 1l-3 1v2c-6.523.37-6.523.37-8.937-1.5L178 184z"/><path fill="#E4C231" d="m331.066 169.902 2.497.036 2.503.027L338 170v6h-2l-1 2-1-3h-5c-.562-1.937-.562-1.937-1-4 1-1 1-1 3.066-1.098"/><path fill="#EAC62A" d="M328 157c2.69.176 5.329.618 8 1 .563 1.938.563 1.938 1 4-1 1-1 1-3.312 1.188-2.766-.193-4.328-.79-6.688-2.188l-1 2c.875-4.875.875-4.875 2-6"/><path fill="#E9C522" d="M192 155c1 2 1 2 .441 3.945l-.879 2.18-.87 2.195L190 165h-3c-2-3-2-3-2-6l2.938-1.437c2.867-1.265 2.867-1.265 4.062-2.563"/><path fill="#393009" d="m211 131 3 1v8h-1l-1 18h-1z"/><path fill="#E2BF2A" d="m284.125 124.938 2.758.027L289 125c-3.467 2.957-6.869 5.078-11 7l-1-6c2.525-1.262 4.312-1.099 7.125-1.062"/><path fill="#EECB3F" d="M291 229c2.438.375 2.438.375 5 1l1 2c2.025.652 2.025.652 4 1l-1 2-5-1-1 3h-3z"/><path fill="#EBC72A" d="M245 203h2v8h-6l-1-5h5z"/><path fill="#E9C524" d="m220 166-1.75 1.25c-2.308 1.703-2.308 1.703-4.25 3.875-2.075 1.945-3.23 2.48-6 2.875.063-2.812.063-2.812 1-6 3.777-2.21 6.78-3.857 11-2"/><path fill="#DAB824" d="m188 126 3 1c.625 2.375.625 2.375 1 5l-2 2c-3.125-.375-3.125-.375-6-1 2.875-5.875 2.875-5.875 4-7"/><path fill="#E1BE33" d="m287 205 1 3 3 1c-2.578 2.648-4.916 4.944-8 7l-1-2c.996-2.164.996-2.164 2.438-4.625l1.433-2.477z"/><path fill="#EAC622" d="M307 200h12v3l-1-2c-3.118.646-3.118.646-4 3-2.437.75-2.437.75-5 1l-2-2z"/><path fill="#EEC837" d="M321.375 172.313 323 173v2l-3 2-1 2h-5l-1-4c5.415-3.077 5.415-3.077 8.375-2.687"/><path fill="#E5C213" d="m227 176 1 2h8v1l-2.773.621-3.602.816-3.586.81c-2.934.61-2.934.61-5.039 1.753l2-6 4 1z"/><path fill="#EDC935" d="m256 170 4 1 1 3h-2v2l3 1-6 2z"/><path fill="#E7C329" d="m182 146 4 1-2 6h5v2h-6l-.312-1.875c-.563-2.49-.563-2.49-3.688-4.125l3-1z"/><path fill="#D9B81A" d="m271 146 3 1v4h6l-1 4-11-6 3-1z"/><path fill="#D4B31E" d="m177 218 2 1-.96 1.703c-1.109 2.449-1.43 4.38-1.665 7.047l-.227 2.422L176 232h-1v-6h-3v2l-3-1v-2h3v-2l3-1c1.209-2 1.209-2 2-4"/><path fill="#E4C11F" d="m293.5 169.75 2.344-.016C298 170 298 170 301 172c-1.899 1.899-4.572 1.124-7.09 1.133C292 173 292 173 290 172l-2 3-2-1v-2c3.122-2.081 3.933-2.274 7.5-2.25"/><path fill="#E5C22D" d="m294 125 2 1-3 3 2 4-8-1c1.333-4 3.496-4.838 7-7"/><path fill="#DCBA1F" d="M200 125c5.538.615 5.538.615 7.875 2.563L209 129l-2 2-2-2-1 4h-2v-3h-2l1-3-1-1z"/><path fill="#E3BF1A" d="m202 187-1 2h-2v2h-14l1-2 9 1v-2c2.463-1.231 4.28-1.072 7-1"/><path fill="#E9C522" d="m276 174 1 4 3-1 1 3c-4.517 1.369-7.588.47-12-1 1.25-1.5 1.25-1.5 3-3h4z"/><path fill="#EAC62E" d="M258 148c2.625-.187 2.625-.187 5 0l1 2-6 1 1 6-3 2c-.25-7.625-.25-7.625 2-11"/><path fill="#E9CF52" d="M227 237v7l-1-2h-7v-2h2v-2c4.875-1 4.875-1 6-1"/><path fill="#D9B72B" d="M313 221c2.797 2.068 3.027 3.144 3.688 6.688L317 231l-1-2h-3l-2-6z"/><path fill="#EBCB3D" d="m258 120 2 2c-1 3-1 3-3.25 4.688-2.886 1.377-4.602 1.582-7.75 1.312l-1-4 2 1v2c3.795-1.491 5.61-3.757 8-7"/><path fill="#EEC937" d="M162 200h4v3h2l-1 3-5 1z"/><path fill="#E6C311" d="m166 170 6 1v2h5v2c-5.75 1.125-5.75 1.125-8 0v-2h-3z"/><path fill="#E7C21E" d="M255 201h1v6l4 1-1 4h-4z"/><path fill="#E5C120" d="m304 159 3 1v5l-7-1c1.75-3.875 1.75-3.875 4-5"/><path fill="#E9C51A" d="M291 115h5l-1 4h-6v2l-4-1c2.139-2.139 3.133-2.427 6-3z"/><path fill="#E5C117" d="M247 225h1l1 11-4-1-1-5 3-1z"/><path fill="#D7B523" d="m201 215-2 1v2l-1.937.375L195 219l-1 2-2-5c2.957-1.478 5.742-1.06 9-1"/><path fill="#EBC72A" d="M213 206h3l1 2 3-1v6h-3v-2l-4-1z"/><path fill="#E8C329" d="M297 200c1.206 2.332 2.165 4.496 3 7l-7 2-1-2h2v-4h3z"/><path fill="#120E00" d="m211 161 2 2a483 483 0 0 1-3.375 3l-1.898 1.688C206 169 206 169 204 169c.125-1.75.125-1.75 1-4 3.063-2.25 3.063-2.25 6-4"/><path fill="#E2BF20" d="m224 228 4 2v8l-2-1-1-4-2-1z"/><path fill="#BB9E24" d="M191 139h1v12h-5c0-2 0-2 2-4 .673-1.967.673-1.967 1.125-4.125z"/><path fill="#EED04E" d="m319 234 7 1-1.937.938c-2 .897-2 .897-3.063 2.062-2.67.141-5.324.042-8 0v-1h5z"/><path fill="#E4C02A" d="m184 224 1 2h4c-.75 2.438-.75 2.438-2 5-2.125.813-2.125.813-4 1z"/><path fill="#E5C30A" d="m169 208 8 2v2h-8z"/><path fill="#D9B81E" d="M322 140h1l1 10c-4 1-4 1-6 0l2-4h2z"/><path fill="#E5C20B" d="m303 137 2 1-2 10-3-4z"/><path fill="#EBC72C" d="M255 233h9v3h-9z"/><path fill="#EDCC3D" d="M332 184a141 141 0 0 1 5 5v2h-5c-1.044-3.133-.934-3.99 0-7"/><path fill="#E8C322" d="m233 188-2 4-6-1v-2c3.067-1.862 4.597-2.215 8-1"/><path fill="#EBC72C" d="M240 173h2v2h5v3l-7-1-1-3z"/><path fill="#E2BF27" d="M265 143h4v2l2 1v2l-6-1z"/><path fill="#DFBC20" d="M247 126h2v2l4 1c-6.75 4-6.75 4-9 4v-3l3-1z"/><path fill="#E4C10F" d="m255 225 1 4 4 1 1-2-1 4-5 1z"/><path fill="#EEC939" d="M272 220c2.063.438 2.063.438 4 1v3l-5 2a100 100 0 0 1 0-5z"/><path fill="#E9C51B" d="M273 126h-2l-1 3h-2v2l-3-1v-2h2v-2c2.49-1.245 3.41-.777 6 0"/><path fill="#EAC622" d="m272 228 1 2 5-2-1 5h-5z"/><path fill="#DCBA2D" d="M237 225h2l2 4-5 5z"/><path fill="#EAC623" d="M333.563 221.938 336 222l1 3-6-1-1 3c0-4.976 0-4.976 3.563-5.062"/><path fill="#EBC72B" d="m163 209 1 2 3 1v3h-2v2h-2z"/><path fill="#C7A503" d="m278 135 2 1c-1.062 1.938-1.062 1.938-3 4-3.687.75-3.687.75-7 1 2.615-2.12 5.196-4.13 8-6"/><path fill="#C4A71A" d="m316 127 1 2h2v4l-6 1 1-3h2z"/><path fill="#DAB828" d="m297 215 3 1-1.937.313L296 217l-1 3-5 1c4.75-4.875 4.75-4.875 7-6"/><path fill="#E7C410" d="m241 196 6 1v4c-4.75-.75-4.75-.75-7-3z"/><path fill="#E1BF2C" d="M334 158h2c.563 1.938.563 1.938 1 4-1 1-1 1-3.562 1.063L331 163v-3h2z"/><path fill="#CECBAB" d="M156 255c2.325 2.853 3.75 5.54 5 9-3.875-1.875-3.875-1.875-5-3-.04-2-.043-4 0-6"/><path fill="#E7C414" d="M167 213h3v5l-5-1v-2h2z"/><path fill="#E1BE2E" d="m185 208 2 1v2a125 125 0 0 1-6 4l-1-2h2l-1-3 2-1 2 1z"/><path fill="#DFBC21" d="M260 162h6l2 4-3 1z"/><path fill="#E1BE2F" d="m192 155 1 2-1 3c-2.562 1.188-2.562 1.188-5 2l-1-2c1.377-2.754 3.367-3.515 6-5"/><path fill="#EAC620" d="M183 137h5l1 4h-5z"/><path fill="#EDC833" d="M233 128v3h2v2h-5l-1-4c2-1 2-1 4-1"/><path fill="#F0D45F" d="m196 117 5 1-1 2c-2.322.407-4.657.744-7 1z"/><path fill="#E0BE26" d="M205 217c3.875 1.75 3.875 1.75 5 4l-5 1c-.562-1.937-.562-1.937-1-4z"/><path fill="#D6B61A" d="m304 215 5 1c-1.187 1.5-1.187 1.5-3 3-2.687.188-2.687.188-5 0l2-1z"/><path fill="#E7C413" d="m216 202 2 2-2.437.813L213 206l-1 3c-1-3-1-3 0-6l4 1z"/><path fill="#DBB925" d="m263 192 2 3-4 6-2-2z"/><path fill="#EBC728" d="M170 162c2 3.875 2 3.875 2 5h-5v-4z"/><path fill="#E2BF2A" d="m193 131 2 2h-2zm-2 2 5 1-1 5a91 91 0 0 1-4-4z"/><path fill="#EBCD40" d="M185.063 235.25C187 236 187 236 190 238l-11-1c4-2 4-2 6.063-1.75"/><path fill="#CEAE24" d="M276 232v5l-3-1-1 3v-6c3-1 3-1 4-1"/><path fill="#E4C132" d="M210 223h2c3 3.462 3 3.462 3 6h-2v-2l-4-2z"/><path fill="#EEC936" d="m221 223 6 1v2l-5 1z"/><path fill="#EEC937" d="m229 203 3 1v2l-1.937.375L228 207l-1 2-2-2z"/><path fill="#E5C30A" d="M294 149c0 2 0 2-2 4.125L290 155l-3-1c.813-1.937.813-1.937 2-4 3-1 3-1 5-1"/><path fill="#E1BF12" d="m234 114 4 1-1 4h-3z"/></svg>